# xmcd CD database file
#
# Track frame offsets:
#	150
#	16417
#	36529
#	52197
#	69179
#	83579
#	99877
#	113535
#	126929
#	145278
#
# Disc length: 2149 seconds
#
# Revision: 0
# Processed by: cddbd v1.4PL0 Copyright (c) Steve Scherf et al.
# Submitted via: CDex 1.51
#
DISCID=8008630a
DTITLE=Chris Blizzard - It's Christmas Time Again
DYEAR=2003
DGENRE=Jazz
TTITLE0=Joy to the World
TTITLE1=It's a Silent Night (without you)
TTITLE2=O Little Town of Bethlehem
TTITLE3=Silent Night
TTITLE4=The First Noel
TTITLE5=oh Holy Night
TTITLE6=It Came Upon a Midnight Clear
TTITLE7=It's Christmas Time Again
TTITLE8=Away in a Manger
TTITLE9=God Rest ye Merry Gentlemen
EXTD=YEAR: 2003
EXTT0=
EXTT1=
EXTT2=
EXTT3=
EXTT4=
EXTT5=
EXTT6=
EXTT7=
EXTT8=
EXTT9=
PLAYORDER=
